<?xml version="1.0" encoding="UTF-8"?>
<svg width="18px" height="18px" viewBox="0 0 18 18" version="1.1" xmlns="http://www.w3.org/2000/svg" xmlns:xlink="http://www.w3.org/1999/xlink">
    <!-- Generator: Sketch 50.2 (55047) - http://www.bohemiancoding.com/sketch -->
    <title>ico-User</title>
    <desc>Created with Sketch.</desc>
    <defs></defs>
    <g id="Listing" stroke="none" stroke-width="1" fill="none" fill-rule="evenodd">
        <g id="BWC-Listing-Hospitals" transform="translate(-16.000000, -138.000000)" fill="#A8A8CD">
            <g id="Sidebar">
                <path d="M19,152 C19,150 23,148.899 25,148.899 C27,148.899 31,150 31,152 L31,153 L19,153 L19,152 Z M28,144 C28,145.66 26.66,147 25,147 C23.34,147 22,145.66 22,144 C22,142.34 23.34,141 25,141 C26.66,141 28,142.34 28,144 Z M16,140 L16,154 C16,155.1 16.89,156 18,156 L32,156 C33.1,156 34,155.1 34,154 L34,140 C34,138.9 33.1,138 32,138 L18,138 C16.89,138 16,138.9 16,140 Z" id="ico-User"></path>
            </g>
        </g>
    </g>
</svg>