<?xml version="1.0" encoding="utf-8"?>
<!-- Generator: Adobe Illustrator 22.1.0, SVG Export Plug-In . SVG Version: 6.00 Build 0)  -->
<svg version="1.1" id="Шар_1" xmlns="http://www.w3.org/2000/svg" xmlns:xlink="http://www.w3.org/1999/xlink" x="0px" y="0px"
	 viewBox="0 0 18 18" style="enable-background:new 0 0 18 18;" xml:space="preserve">
<style type="text/css">
	.st0{fill:#73738B;}
</style>
<title>ico-Remove</title>
<desc>Created with Sketch.</desc>
<g>
	<path class="st0" d="M17.4,5h-4.4V2.6c0-1.4-1.2-2.6-2.6-2.6h-3C6.1,0,4.9,1.2,4.9,2.6V5H0.6C0.3,5,0,5.3,0,5.6s0.3,0.6,0.6,0.6
		h2.5V16c0,1.1,0.9,2,2,2H13c1.1,0,2-0.9,2-2V6.2h2.5c0.3,0,0.6-0.3,0.6-0.6S17.7,5,17.4,5z M13.8,16c0,0.5-0.3,0.8-0.8,0.8H5
		c-0.5,0-0.8-0.3-0.8-0.8V6.2h9.6V16z M6.1,2.5c0-0.8,0.6-1.4,1.4-1.4h3c0.8,0,1.4,0.6,1.4,1.4v2.4H6.1V2.5z"/>
	<path class="st0" d="M7.5,14.1c0.3,0,0.6-0.3,0.6-0.6v-4c0-0.3-0.3-0.6-0.6-0.6S6.9,9.2,6.9,9.5v4C6.9,13.8,7.2,14.1,7.5,14.1z"/>
	<path class="st0" d="M10.5,14.1c0.3,0,0.6-0.3,0.6-0.6v-4c0-0.3-0.3-0.6-0.6-0.6S9.9,9.2,9.9,9.5v4C9.9,13.8,10.2,14.1,10.5,14.1z"
		/>
</g>
</svg>
