<?xml version="1.0" encoding="utf-8"?>
<!-- Generator: Adobe Illustrator 22.1.0, SVG Export Plug-In . SVG Version: 6.00 Build 0)  -->
<svg version="1.1" id="Шар_1" xmlns="http://www.w3.org/2000/svg" xmlns:xlink="http://www.w3.org/1999/xlink" x="0px" y="0px"
	 viewBox="0 0 14 14" style="enable-background:new 0 0 14 14;" xml:space="preserve">
<style type="text/css">
	.st0{fill:#666666;}
</style>
<title>ico-Search</title>
<desc>Created with Sketch.</desc>
<g id="My-Uploads">
	<g id="af-uploads-default" transform="translate(-98.000000, -27.000000)">
		<path class="st0" d="M111.5,39.5l-2.2-2.2c0.9-1.1,1.4-2.4,1.4-3.9c0-3.4-2.8-6.1-6.2-6.1c-3.4,0-6.1,2.8-6.1,6.1
			c0,3.4,2.8,6.2,6.1,6.2c1.5,0,2.8-0.5,3.9-1.4l2.2,2.2c0.1,0.1,0.3,0.2,0.5,0.2s0.3-0.1,0.5-0.2C111.7,40.2,111.7,39.8,111.5,39.5
			z M99.6,33.5c0-2.7,2.2-4.9,4.9-4.9c2.7,0,4.8,2.2,4.8,4.9c0,2.7-2.2,4.8-4.8,4.8C101.8,38.3,99.6,36.2,99.6,33.5z"/>
	</g>
</g>
</svg>
